# xmcd CD database file
#
# Track frame offsets:
#	150
#	11493
#	24716
#	36013
#	46350
#	57737
#	69911
#	82352
#	94439
#	105482
#	119905
#	130602
#	144327
#	158341
#	171283
#	184631
#	194491
#	206310
#	217689
#	227223
#	239673
#	251100
#
# Disc length: 3574 seconds
#
# Revision: 0
# Processed by: cddbd v1.5.2PL0 Copyright (c) Steve Scherf et al.
# Submitted via: CDex 1.51
#
DISCID=3c0df416
DTITLE=T.Bone Walker - BD Blues CD2 1950/1956
DYEAR=2007
DGENRE=Blues
TTITLE0=Strollin' with Bones
TTITLE1=You don't love me
TTITLE2=The hustle is on
TTITLE3=I walked away
TTITLE4=No reason
TTITLE5=Alimony blues
TTITLE6=Life is too short
TTITLE7=I get so weary
TTITLE8=Welcome baby (Say ! Pretty baby)
TTITLE9=Cold cold feeling
TTITLE10=News for my baby
TTITLE11=Get these blues off me
TTITLE12=Street walking woman
TTITLE13=Blue mood
TTITLE14=Lollie Lou
TTITLE15=Party girl
TTITLE16=My baby is now on my mind
TTITLE17=Pony tail
TTITLE18=I'll understand
TTITLE19=Papa ain't salty
TTITLE20=Play on little girl
TTITLE21=T-Bone blues
EXTD=YEAR: 2007
EXTT0=
EXTT1=
EXTT2=
EXTT3=
EXTT4=
EXTT5=
EXTT6=
EXTT7=
EXTT8=
EXTT9=
EXTT10=
EXTT11=
EXTT12=
EXTT13=
EXTT14=
EXTT15=
EXTT16=
EXTT17=
EXTT18=
EXTT19=
EXTT20=
EXTT21=
PLAYORDER=
